<svg xmlns="http://www.w3.org/2000/svg" width="16" height="16" viewBox="0 0 16 16"><defs><style>.a{fill:#00008b;}.b{fill:#fff;}.c{fill:red;}</style></defs><title>icon-aus</title><circle class="a" cx="8" cy="8" r="8"/><polygon class="b" points="3.5 8.48 3.91 9.74 5.14 9.27 4.41 10.37 5.54 11.04 4.23 11.15 4.41 12.46 3.5 11.5 2.6 12.46 2.78 11.15 1.46 11.04 2.6 10.37 1.87 9.27 3.1 9.74 3.5 8.48"/><polygon class="b" points="11.87 12.51 12.02 12.96 12.46 12.79 12.2 13.18 12.6 13.42 12.13 13.46 12.2 13.93 11.87 13.59 11.55 13.93 11.61 13.46 11.14 13.42 11.55 13.18 11.29 12.79 11.73 12.96 11.87 12.51"/><polygon class="b" points="9.86 9.32 10 9.77 10.44 9.6 10.18 9.99 10.59 10.23 10.12 10.27 10.18 10.74 9.86 10.4 9.53 10.74 9.6 10.27 9.13 10.23 9.53 9.99 9.27 9.6 9.71 9.77 9.86 9.32"/><polygon class="b" points="11.87 7.13 12.02 7.58 12.46 7.42 12.2 7.81 12.6 8.05 12.13 8.09 12.2 8.56 11.87 8.22 11.55 8.56 11.61 8.09 11.14 8.05 11.55 7.81 11.29 7.42 11.73 7.58 11.87 7.13"/><polygon class="b" points="13.66 8.78 13.81 9.23 14.25 9.06 13.99 9.46 14.39 9.7 13.92 9.74 13.99 10.2 13.66 9.86 13.34 10.2 13.4 9.74 12.93 9.7 13.34 9.46 13.08 9.06 13.52 9.23 13.66 8.78"/><polygon class="b" points="12.68 10.47 12.79 10.75 13.09 10.77 12.86 10.97 12.93 11.26 12.68 11.1 12.42 11.26 12.49 10.97 12.26 10.77 12.56 10.75 12.68 10.47"/><path class="b" d="M5.39,2L3.82,1.19a5.5,5.5,0,0,0-.61.42l1.1,0.55h-1L2.83,1.9l-0.17.16,0.2,0.1H2.55l-0.43.43h3.7V0.31l-0.43.13V2Z"/><path class="b" d="M10.07,2.16l2-1Q11.73,1,11.37.79L8.62,2.16h-1l3.26-1.62-0.28-.1L7.54,2V0H7.11V2.59h5.82V2.16H10.07Z"/><path class="b" d="M1.15,3.88C1.07,4,1,4.16.91,4.31h2L0.39,5.55a7.94,7.94,0,0,0-.22.83L4.31,4.31h1L1,6.47H1.48l3.94-2v2H5.85V3.88H1.15Z"/><polygon class="b" points="7.11 3.88 7.11 4.28 7.11 6.47 7.54 6.47 7.54 4.5 11.49 6.47 12.93 6.47 8.62 4.31 9.59 4.31 12.93 5.99 12.93 5.74 10.07 4.31 12.93 4.31 12.93 3.88 9.21 3.88 7.11 3.88"/><path class="c" d="M9.21,2.59H7.11V0.05A8,8,0,0,0,5.82.31V2.59H2.12a8,8,0,0,0-1,1.29h4.7V6.47H7.11V3.88h5.82V2.59H9.21Z"/><path class="c" d="M4.31,2.16L3.21,1.6l-0.38.29L3.34,2.15h1Z"/><path class="c" d="M11.4,0.77l-0.52-.23L7.66,2.16h1Z"/><polygon class="c" points="8.62 4.31 12.93 6.47 12.93 5.99 9.59 4.31 8.62 4.31"/><path class="c" d="M0.16,6.38V6.46H1L5.28,4.31h-1Z"/></svg>
