<svg width="16" height="16" viewBox="0 0 16 16" fill="none" xmlns="http://www.w3.org/2000/svg">
<rect width="16" height="16" fill="black" fill-opacity="0"/>
<rect width="16" height="16" fill="black" fill-opacity="0"/>
<rect width="16" height="16" fill="black" fill-opacity="0"/>
<path d="M2.06441e-08 8.0002C-6.53021e-05 8.90947 0.154892 9.81209 0.458213 10.6693H15.5429C16.1524 8.94458 16.1524 7.06309 15.5429 5.33838H0.458213C0.155706 6.19327 0.000760212 7.09337 2.06441e-08 8.0002Z" fill="#F5F5F5"/>
<path d="M8.00082 2.58679e-09C6.34676 -4.20462e-05 4.73334 0.512551 3.38264 1.46723C2.03194 2.4219 1.01035 3.77173 0.458496 5.33091H15.5432C14.9913 3.77173 13.9697 2.4219 12.619 1.46723C11.2683 0.512551 9.65489 -4.20462e-05 8.00082 2.58679e-09V2.58679e-09Z" fill="#FF9933"/>
<path d="M8.00082 15.9999C9.65489 15.9999 11.2683 15.4873 12.619 14.5326C13.9697 13.578 14.9913 12.2281 15.5432 10.6689H0.458496C1.01035 12.2281 2.03194 13.578 3.38264 14.5326C4.73334 15.4873 6.34676 15.9999 8.00082 15.9999Z" fill="#128807"/>
<path d="M8.00068 5.86914C7.5792 5.86914 7.16718 5.99412 6.81673 6.22826C6.46628 6.46241 6.19314 6.79521 6.03185 7.18459C5.87055 7.57396 5.82835 8.00241 5.91058 8.41577C5.9928 8.82912 6.19577 9.20882 6.4938 9.50683C6.79183 9.80484 7.17155 10.0078 7.58494 10.09C7.99832 10.1722 8.4268 10.13 8.8162 9.96875C9.2056 9.80747 9.53843 9.53435 9.77259 9.18392C10.0068 8.83349 10.1317 8.4215 10.1317 8.00005C10.1317 7.4349 9.90722 6.89289 9.50757 6.49327C9.10792 6.09365 8.56587 5.86914 8.00068 5.86914ZM9.63716 7.32369C9.64659 7.34352 9.66265 7.35946 9.68256 7.36875C9.70246 7.37804 9.72499 7.38011 9.74626 7.3746C9.74626 7.4255 9.74626 7.46914 9.78989 7.52005L8.69891 7.7455L8.34252 7.89096V7.83278L8.69164 7.68005L9.62261 7.06914L9.69534 7.20005C9.68323 7.20411 9.67207 7.21057 9.66253 7.21906C9.65299 7.22755 9.64527 7.23788 9.63983 7.24944C9.6344 7.26099 9.63136 7.27353 9.6309 7.28629C9.63044 7.29905 9.63257 7.31177 9.63716 7.32369ZM9.07712 6.59641C9.0943 6.61126 9.11624 6.61942 9.13894 6.61942C9.16164 6.61942 9.18359 6.61126 9.20076 6.59641L9.31714 6.69823C9.3535 6.7346 9.38259 6.77823 9.41896 6.8146C9.40412 6.83177 9.39595 6.85371 9.39595 6.87641C9.39595 6.89911 9.40412 6.92106 9.41896 6.93823C9.43614 6.95307 9.45808 6.96124 9.48078 6.96124C9.50348 6.96124 9.52543 6.95307 9.54261 6.93823C9.54261 6.98187 9.59352 7.0255 9.61534 7.06914L8.61891 7.57096L8.31343 7.80369V7.75278L8.61163 7.52005L9.33896 6.68369L8.50253 7.41096L8.26979 7.70914H8.21888L8.45162 7.40369L8.95347 6.40732L9.08439 6.48005C9.07035 6.49584 9.062 6.51589 9.06068 6.53698C9.05936 6.55807 9.06515 6.57899 9.07712 6.59641ZM8.67709 6.36369C8.69849 6.3717 8.72206 6.37169 8.74346 6.36367C8.76485 6.35565 8.78261 6.34015 8.79346 6.32005L8.92438 6.39278L8.31343 7.32369L8.16069 7.67278H8.10251L8.24797 7.31641L8.47344 6.2255L8.61891 6.26914C8.6174 6.28902 8.62221 6.30887 8.63266 6.32585C8.64311 6.34283 8.65866 6.35607 8.67709 6.36369ZM7.66611 6.16732C7.66611 6.19143 7.67569 6.21456 7.69274 6.2316C7.70979 6.24865 7.73292 6.25823 7.75703 6.25823C7.78114 6.25823 7.80427 6.24865 7.82132 6.2316C7.83837 6.21456 7.84795 6.19143 7.84795 6.16732H8.00068H8.15342C8.15315 6.19007 8.16109 6.21215 8.17579 6.22952C8.19048 6.24688 8.21095 6.25837 8.23343 6.26187C8.25635 6.26423 8.27934 6.25815 8.29809 6.24476C8.31684 6.23137 8.33006 6.21159 8.33525 6.18914L8.48072 6.2255L8.1316 7.27278L8.08069 7.65096H8.0225L8.06614 7.27278L8.00068 6.13096L7.93522 7.27278L7.97886 7.65096H7.92068L7.86976 7.27278L7.52065 6.21096L7.66611 6.16732ZM7.2079 6.32005C7.21658 6.34223 7.23372 6.36006 7.25554 6.3696C7.27737 6.37915 7.30209 6.37964 7.32427 6.37096C7.34646 6.36228 7.36428 6.34514 7.37383 6.32332C7.38338 6.3015 7.38387 6.27678 7.37519 6.2546L7.52065 6.21096L7.74612 7.30187L7.89158 7.65823H7.8334L7.68066 7.30914L7.06971 6.39278L7.2079 6.32005ZM6.48058 6.9455C6.49776 6.96035 6.5197 6.96851 6.5424 6.96851C6.5651 6.96851 6.58705 6.96035 6.60422 6.9455C6.61907 6.92833 6.62724 6.90639 6.62724 6.88369C6.62724 6.86099 6.61907 6.83904 6.60422 6.82187C6.60422 6.7855 6.66968 6.74187 6.70605 6.7055L6.8006 6.5455C6.81778 6.56035 6.83972 6.56851 6.86242 6.56851C6.88513 6.56851 6.90707 6.56035 6.92425 6.5455C6.93909 6.52833 6.94726 6.50639 6.94726 6.48369C6.94726 6.46099 6.93909 6.43904 6.92425 6.42187L7.05516 6.34914L7.55702 7.3455L7.78976 7.65096H7.73885L7.5061 7.35278L6.66968 6.6255L7.39701 7.46187L7.69521 7.6946V7.7455L7.38973 7.51278L6.3933 7.06914C6.41512 7.0255 6.43694 6.98187 6.46603 6.93823L6.48058 6.9455ZM6.40057 7.07641L7.33155 7.68732L7.68066 7.84005V7.89823L7.32427 7.75278L6.23329 7.52732C6.23329 7.47641 6.23329 7.4255 6.27693 7.38187C6.29911 7.39055 6.32384 7.39006 6.34566 7.38051C6.36748 7.37097 6.38462 7.35314 6.3933 7.33096C6.40198 7.30878 6.40149 7.28406 6.39195 7.26223C6.3824 7.24041 6.36457 7.22327 6.34239 7.2146L6.40057 7.07641ZM6.16056 8.16005C6.16056 8.10914 6.16056 8.05823 6.16056 8.00732C6.16056 7.95641 6.16056 7.9055 6.16056 7.8546C6.18331 7.85487 6.20539 7.84693 6.22276 7.83223C6.24013 7.81754 6.25161 7.79707 6.25511 7.77459C6.25748 7.75168 6.25139 7.72868 6.238 7.70993C6.22461 7.69119 6.20483 7.67797 6.18238 7.67278C6.18238 7.62187 6.18238 7.57096 6.21874 7.52732L7.28063 7.87641L7.65884 7.92732C7.65729 7.94669 7.65729 7.96614 7.65884 7.9855L7.27336 7.9346L6.13147 8.00005L7.25154 8.0655L7.62975 8.02187C7.62819 8.04123 7.62819 8.06069 7.62975 8.08005L7.25154 8.13096L6.18965 8.48005C6.18965 8.42914 6.18965 8.3855 6.15329 8.3346C6.17573 8.3294 6.19551 8.31619 6.20891 8.29744C6.2223 8.27869 6.22838 8.2557 6.22602 8.23278C6.22309 8.2126 6.21372 8.19391 6.1993 8.17949C6.18488 8.16507 6.16619 8.1557 6.14601 8.15278L6.16056 8.16005ZM6.37148 8.68369C6.36204 8.66385 6.34599 8.64791 6.32608 8.63862C6.30617 8.62933 6.28365 8.62727 6.26238 8.63278C6.26238 8.58187 6.26238 8.53823 6.21874 8.48732L7.30973 8.26187L7.66611 8.11641V8.1746L7.317 8.32732L6.38603 8.93823L6.3133 8.80732C6.32568 8.80262 6.33693 8.79538 6.34634 8.78605C6.35574 8.77673 6.36308 8.76554 6.36788 8.75319C6.37268 8.74085 6.37483 8.72764 6.3742 8.71441C6.37357 8.70119 6.37016 8.68824 6.36421 8.67641L6.37148 8.68369ZM6.93152 9.41096C6.91434 9.39612 6.8924 9.38795 6.8697 9.38795C6.847 9.38795 6.82505 9.39612 6.80787 9.41096L6.6915 9.30914C6.65514 9.27278 6.62604 9.22914 6.58968 9.19278C6.60452 9.1756 6.61269 9.15366 6.61269 9.13096C6.61269 9.10826 6.60452 9.08632 6.58968 9.06914C6.5725 9.0543 6.55056 9.04613 6.52786 9.04613C6.50515 9.04613 6.48321 9.0543 6.46603 9.06914C6.46603 9.0255 6.41512 8.98187 6.3933 8.93823L7.38973 8.43641L7.69521 8.20369V8.2546L7.39701 8.48732L6.66968 9.32369L7.5061 8.59641L7.73885 8.29823H7.78976L7.55702 8.60369L7.05516 9.60005L6.92425 9.52732C6.93909 9.51015 6.94726 9.4882 6.94726 9.4655C6.94726 9.4428 6.93909 9.42086 6.92425 9.40369L6.93152 9.41096ZM7.33155 9.64369C7.31015 9.63567 7.28658 9.63568 7.26518 9.6437C7.24379 9.65172 7.22603 9.66722 7.21518 9.68732L7.08426 9.6146L7.69521 8.68369L7.84795 8.3346H7.90613L7.76067 8.69096L7.5352 9.78187L7.38973 9.73823C7.39245 9.71628 7.38739 9.69408 7.37543 9.67547C7.36347 9.65687 7.34537 9.64305 7.32427 9.63641L7.33155 9.64369ZM8.34252 9.84005C8.33733 9.8176 8.32411 9.79783 8.30536 9.78443C8.28661 9.77104 8.26362 9.76496 8.2407 9.76732C8.21822 9.77082 8.19775 9.78231 8.18306 9.79967C8.16836 9.81704 8.16042 9.83912 8.16069 9.86187H8.00796H7.85522C7.85549 9.83912 7.84755 9.81704 7.83285 9.79967C7.81816 9.78231 7.79769 9.77082 7.77521 9.76732C7.75229 9.76496 7.7293 9.77104 7.71055 9.78443C7.6918 9.79783 7.67858 9.8176 7.67339 9.84005L7.52792 9.80369L7.86976 8.72732L7.92068 8.34914H7.97886L7.93522 8.72732L8.00068 9.86914L8.06614 8.72732L8.00068 8.37096H8.05887L8.10978 8.74914L8.4589 9.81096L8.34252 9.84005ZM8.80074 9.68732C8.79644 9.67634 8.79002 9.66631 8.78184 9.65781C8.77367 9.6493 8.7639 9.6425 8.7531 9.63777C8.74229 9.63304 8.73066 9.63049 8.71887 9.63026C8.70707 9.63002 8.69535 9.63212 8.68437 9.63641C8.67338 9.64071 8.66335 9.64713 8.65485 9.6553C8.64635 9.66348 8.63954 9.67325 8.63481 9.68405C8.63008 9.69486 8.62753 9.70649 8.62729 9.71828C8.62706 9.73007 8.62915 9.74179 8.63345 9.75278L8.48799 9.79641L8.25525 8.72732L8.10978 8.37096H8.16797L8.3207 8.72005L8.93165 9.65096L8.80074 9.68732ZM9.52806 9.06187C9.51088 9.04703 9.48894 9.03886 9.46624 9.03886C9.44353 9.03886 9.42159 9.04703 9.40441 9.06187C9.38957 9.07904 9.3814 9.10099 9.3814 9.12369C9.3814 9.14639 9.38957 9.16833 9.40441 9.1855C9.40441 9.22187 9.33896 9.2655 9.30259 9.30187L9.18622 9.40369C9.16904 9.38884 9.1471 9.38068 9.1244 9.38068C9.10169 9.38068 9.07975 9.38884 9.06257 9.40369C9.04773 9.42086 9.03956 9.4428 9.03956 9.4655C9.03956 9.4882 9.04773 9.51015 9.06257 9.52732L8.93165 9.60005L8.4298 8.60369L8.19706 8.29823H8.24797L8.48072 8.59641L9.31714 9.32369L8.58981 8.48732L8.29161 8.2546V8.20369L8.59709 8.43641L9.59352 8.93823C9.58624 8.9746 9.56442 9.01823 9.53533 9.06187H9.52806ZM9.60806 8.93096L8.67709 8.32005L8.32798 8.16732V8.10914L8.68437 8.2546L9.77535 8.48005C9.77535 8.53096 9.77535 8.58187 9.73171 8.6255C9.70953 8.61682 9.6848 8.61731 9.66298 8.62686C9.64115 8.63641 9.62402 8.65423 9.61534 8.67641C9.60666 8.6986 9.60714 8.72332 9.61669 8.74514C9.62624 8.76696 9.64407 8.7841 9.66625 8.79278L9.60806 8.93096ZM9.79717 8.48005L8.728 8.13096L8.3498 8.08005C8.35138 8.06069 8.35138 8.04123 8.3498 8.02187L8.728 8.0655L9.8699 8.00005L8.728 7.9346L8.3498 7.97823C8.35138 7.95887 8.35138 7.93941 8.3498 7.92005L8.728 7.86914L9.78989 7.52005C9.78989 7.57096 9.78989 7.6146 9.82626 7.6655C9.80381 7.6707 9.78403 7.68391 9.77064 7.70266C9.75725 7.72141 9.75116 7.7444 9.75353 7.76732C9.75703 7.7898 9.76851 7.81026 9.78588 7.82496C9.80325 7.83965 9.82533 7.84759 9.84808 7.84732C9.84808 7.89823 9.84808 7.94914 9.84808 8.00005C9.84808 8.05096 9.84808 8.10187 9.84808 8.15278C9.82397 8.15278 9.80084 8.16235 9.78379 8.1794C9.76674 8.19645 9.75717 8.21958 9.75717 8.24369C9.75717 8.2678 9.76674 8.29092 9.78379 8.30797C9.80084 8.32502 9.82397 8.3346 9.84808 8.3346C9.82626 8.3855 9.81171 8.42914 9.79717 8.48005Z" fill="#000088"/>
</svg>
