<svg width="238" height="71" viewBox="0 0 238 71" fill="none" xmlns="http://www.w3.org/2000/svg">
<path d="M32.1916 7.46991H20.0652V43.8817H11.8724V7.46991H0V0H32.1916V7.46991ZM59.9026 36.9262C56.0471 42.0842 51.078 44.8195 44.7413 44.8195C36.6006 44.8195 28.7725 39.6615 28.7725 28.2255C28.7725 17.8053 35.4804 11.8854 44.2464 11.8854C52.4457 11.8854 55.8648 16.7959 56.49 17.7467C59.0364 21.3482 59.5965 26.7536 59.6616 29.8666H36.6657C37.5384 34.7771 40.5733 37.571 45.4903 37.571C47.0953 37.6362 48.6888 37.2738 50.1078 36.5209C51.5267 35.7679 52.7201 34.6514 53.5658 33.2857L59.9026 36.9262ZM51.4362 24.3765C50.785 19.5312 47.7697 17.864 44.4743 17.864C40.4951 17.864 37.7664 20.1629 36.8937 24.3765H51.4362ZM64.6242 21.9473C64.6552 20.3152 65.082 18.715 65.8681 17.2843C68.8508 11.8789 76.2426 11.8789 78.242 11.8789C81.2247 11.8789 84.8262 12.2501 87.5614 13.8652C91.228 16.1056 91.2866 19.0232 91.2866 22.3772V38.8474C91.2866 41.2115 91.2866 42.0191 92.6543 43.8817H83.8232C83.7581 43.1392 83.6344 41.8953 83.6344 41.459C81.0204 43.5338 77.7758 44.6529 74.4386 44.6306C67.4181 44.6306 63.1914 40.2802 63.1914 34.9399C63.1895 33.4726 63.5307 32.0252 64.1878 30.7133C66.4282 26.2391 71.2084 25.2427 74.1911 24.6891C80.593 23.3866 81.0879 23.2629 83.8232 22.3902C83.8232 20.8337 83.6995 17.6686 78.5415 17.6686C75.435 17.6686 73.7548 18.665 73.0124 19.6549C72.7137 20.0392 72.4939 20.4786 72.3654 20.9479C72.2368 21.4173 72.2022 21.9074 72.2634 22.3902L64.6242 21.9473ZM83.8232 28.4078C82.3318 29.1502 80.6516 29.7103 77.3107 30.2704C74.6405 30.6416 71.0977 31.2668 71.0977 34.5557C71.0977 36.9783 73.1491 38.2222 76.1319 38.2222C79.9222 38.2222 82.5923 36.4834 83.3999 34.6208C83.7555 33.7347 83.9047 32.7792 83.8363 31.8269L83.8232 28.4078ZM118.242 23.8099C117.813 22.2851 116.897 20.9428 115.632 19.9889C114.368 19.0349 112.825 18.5218 111.241 18.5282C106.956 18.5282 103.537 21.9473 103.537 28.1603C103.537 33.7546 106.454 37.851 111.352 37.851C116.073 37.851 117.864 34.2496 118.809 31.7618L125.211 35.1157C124.176 37.9815 122.275 40.4545 119.772 42.192C117.269 43.9295 114.288 44.8454 111.241 44.813C102.605 44.813 95.8324 38.1636 95.8324 28.3427C95.8324 18.8343 102.671 11.8789 111.463 11.8789C119.278 11.8789 123.27 17.089 124.885 20.7034L118.242 23.8099ZM136.23 0V15.9818C137.513 14.6643 139.05 13.6212 140.748 12.9159C142.447 12.2106 144.271 11.8578 146.109 11.8789C149.965 11.8789 152.948 13.3703 154.621 15.2329C157.168 17.9682 157.226 21.1333 157.226 24.6761V43.8817H149.9V26.7927C149.776 23.9988 149.776 23.315 149.405 22.3837C149.157 21.7324 148.102 18.9646 143.999 18.9646C142.306 18.975 140.66 19.5303 139.307 20.5483C137.953 21.5664 136.964 22.9932 136.484 24.6175C136.236 25.6139 136.236 26.1089 136.236 29.5866V43.8817H128.773V0H136.23ZM192.524 36.9262C188.669 42.0842 183.7 44.8195 177.363 44.8195C169.203 44.813 161.388 39.655 161.388 28.2255C161.388 17.8053 168.096 11.8854 176.862 11.8854C185.061 11.8854 188.48 16.7959 189.105 17.7467C191.652 21.3482 192.212 26.7536 192.277 29.8666H169.288C170.16 34.7771 173.195 37.571 178.112 37.571C179.717 37.6362 181.311 37.2738 182.73 36.5209C184.149 35.7679 185.342 34.6514 186.188 33.2857L192.524 36.9262ZM184.058 24.3765C183.407 19.5312 180.392 17.864 177.096 17.864C173.117 17.864 170.388 20.1629 169.516 24.3765H184.058ZM204.416 12.8167V17.2257C205.348 15.6106 207.399 11.944 214.361 12.1329V19.7721C212.746 19.8373 209.952 19.8959 207.653 21.6347C204.482 24.0574 204.397 27.229 204.397 32.387V43.8817H197.207V12.8167H204.416ZM13.8718 58.9127V61.5698H19.3163V63.3933H13.8718V66.4282H20.228V68.3298H11.7617V57.024H19.8308V58.9127H13.8718ZM27.6849 60.3194L25.0799 68.3233H22.9959L20.3908 60.3194H22.3446L24.0118 65.829L25.6465 60.3194H27.6849ZM30.5309 57.1347V59.0885H28.6292V57.1347H30.5309ZM30.5309 60.3194V68.3233H28.6292V60.3194H30.5309ZM39.6029 57.024V68.3233H37.7012V67.5548C37.4318 67.8821 37.0909 68.1432 36.7048 68.3182C36.3187 68.4932 35.8976 68.5774 35.4739 68.5643C33.5658 68.5643 31.9181 67.138 31.9181 64.5004C31.9181 62.1168 33.2597 60.0784 35.5521 60.0784C35.9532 60.0626 36.3529 60.1349 36.7231 60.2902C37.0932 60.4455 37.4249 60.6799 37.6947 60.9771V57.024H39.6029ZM37.2519 62.5923C37.0973 62.363 36.8873 62.1766 36.6413 62.0502C36.3954 61.9238 36.1215 61.8616 35.8452 61.8694C34.5426 61.8694 33.8914 63.0351 33.8914 64.3051C33.8914 64.4483 33.8914 66.8515 35.78 66.8515C36.7699 66.8515 37.6687 66.1155 37.6557 64.3832C37.6823 63.761 37.543 63.1428 37.2519 62.5923ZM49.0136 66.5324C48.5801 67.1668 47.9965 67.6842 47.3148 68.0387C46.6331 68.3932 45.8743 68.5737 45.106 68.5643C43.009 68.5643 40.9901 67.2618 40.9901 64.292C40.9901 61.6023 42.7159 60.0784 44.9758 60.0784C45.5856 60.0418 46.1947 60.1606 46.746 60.4238C47.2973 60.6869 47.7728 61.0857 48.1279 61.5828C48.6788 62.5289 48.9603 63.6077 48.9419 64.7023H43.0155C43.0685 65.2586 43.3347 65.7727 43.7585 66.1369C44.1822 66.5012 44.7305 66.6872 45.2884 66.6561C45.7027 66.673 46.1141 66.5793 46.4803 66.3848C46.8465 66.1902 47.1544 65.9017 47.3724 65.549L49.0136 66.5324ZM46.8384 63.2761C46.8343 63.0472 46.7843 62.8214 46.6914 62.6121C46.5986 62.4029 46.4647 62.2144 46.2977 62.0577C46.1308 61.9011 45.9341 61.7795 45.7194 61.7002C45.5046 61.6208 45.2761 61.5853 45.0474 61.5958C44.5699 61.578 44.1033 61.7412 43.741 62.0528C43.3787 62.3644 43.1475 62.8013 43.0936 63.2761H46.8384ZM50.2575 60.3194H52.2112V61.2637C52.3807 61.0037 52.6025 60.7819 52.8625 60.6124C53.4082 60.2481 54.0494 60.0533 54.7055 60.0523C55.1056 60.0411 55.503 60.1222 55.8666 60.2894C56.2303 60.4565 56.5506 60.7052 56.8026 61.0162C57.2975 61.6675 57.2975 62.5532 57.2975 63.6212V68.3298H55.3503V64.2464C55.3724 63.8393 55.3506 63.431 55.2852 63.0286C55.2311 62.724 55.0703 62.4485 54.8316 62.2517C54.593 62.0548 54.292 61.9492 53.9827 61.954C53.679 61.9568 53.3818 62.0419 53.1226 62.2002C52.8635 62.3584 52.652 62.5839 52.5108 62.8528C52.2616 63.4882 52.1571 64.1712 52.2047 64.8521V68.3233H50.2509L50.2575 60.3194ZM64.253 63.1719C64.1418 62.7781 63.9044 62.4317 63.5774 62.1858C63.2503 61.9399 62.8516 61.8082 62.4425 61.8107C61.3353 61.8107 60.4887 62.6899 60.4887 64.292C60.4887 65.7313 61.2442 66.7863 62.5076 66.7863C62.9562 66.7736 63.388 66.6127 63.7355 66.3288C64.0831 66.0449 64.3269 65.6539 64.4288 65.2168L66.0765 66.083C65.809 66.8209 65.3187 67.4575 64.6735 67.9044C64.0282 68.3513 63.2599 68.5864 62.475 68.5773C60.2477 68.5773 58.5024 66.8645 58.5024 64.3376C58.4769 63.7916 58.5622 63.2461 58.7531 62.7339C58.944 62.2218 59.2365 61.7535 59.6132 61.3574C59.9898 60.9613 60.4427 60.6455 60.9446 60.4291C61.4465 60.2126 61.9871 60.1 62.5336 60.0979C63.2711 60.0881 63.9947 60.2993 64.611 60.7044C65.2274 61.1095 65.7083 61.6899 65.9918 62.3708L64.253 63.1719ZM74.6079 66.5324C74.1744 67.1668 73.5909 67.6842 72.9092 68.0387C72.2275 68.3932 71.4687 68.5737 70.7004 68.5643C68.6034 68.5643 66.5845 67.2618 66.5845 64.292C66.5845 61.6023 68.3103 60.0784 70.5702 60.0784C71.1799 60.0418 71.789 60.1606 72.3404 60.4238C72.8917 60.6869 73.3672 61.0857 73.7222 61.5828C74.2732 62.5289 74.5547 63.6077 74.5363 64.7023H68.6099C68.6629 65.2586 68.9291 65.7727 69.3529 66.1369C69.7766 66.5012 70.3249 66.6872 70.8828 66.6561C71.2971 66.673 71.7085 66.5793 72.0747 66.3848C72.4409 66.1902 72.7488 65.9017 72.9668 65.549L74.6079 66.5324ZM72.4327 63.2761C72.4286 63.0472 72.3787 62.8214 72.2858 62.6121C72.193 62.4029 72.0591 62.2144 71.8921 62.0577C71.7252 61.9011 71.5285 61.7795 71.3137 61.7002C71.099 61.6208 70.8705 61.5853 70.6418 61.5958C70.1643 61.578 69.6977 61.7412 69.3354 62.0528C68.9731 62.3644 68.7419 62.8013 68.688 63.2761H72.4327Z" fill="#232323"/>
<path d="M85.2355 68.3234H83.5879V64.4745H79.7324V62.8398H83.5879V58.9844H85.2355V62.8398H89.0649V64.4745H85.2421L85.2355 68.3234Z" fill="#6FC527"/>
<path d="M97.1192 57.0239V68.3232H95.0352V57.0239H97.1192ZM99.2032 60.3193H101.157V61.2636C101.326 61.0036 101.548 60.7818 101.808 60.6124C102.354 60.2481 102.995 60.0532 103.651 60.0523C104.051 60.041 104.449 60.1221 104.812 60.2893C105.176 60.4564 105.496 60.7052 105.748 61.0161C106.243 61.6674 106.243 62.5531 106.243 63.6212V68.3297H104.335V64.2464C104.357 63.8393 104.335 63.4309 104.27 63.0285C104.216 62.7239 104.055 62.4485 103.816 62.2516C103.578 62.0547 103.277 61.9492 102.967 61.9539C102.664 61.9568 102.367 62.0418 102.107 62.2001C101.848 62.3583 101.637 62.5839 101.496 62.8527C101.246 63.4881 101.142 64.1711 101.19 64.852V68.3232H99.2358L99.2032 60.3193ZM108.633 65.9592C108.911 66.2984 109.264 66.5677 109.664 66.7453C110.065 66.923 110.501 67.0039 110.939 66.9816C112.046 66.9816 112.521 66.4346 112.521 66.0373C112.521 65.5228 111.948 65.3861 111.688 65.347C111.427 65.3079 110.105 65.0409 109.812 64.9627C107.904 64.5134 107.552 63.4128 107.552 62.6899C107.552 61.3287 108.783 60.0848 110.978 60.0848C111.917 60.0623 112.841 60.3307 113.622 60.8533C113.93 61.0501 114.204 61.2941 114.436 61.5762L113.075 62.8396C112.874 62.444 112.56 62.1171 112.172 61.9002C111.785 61.6834 111.342 61.5865 110.9 61.6218C109.988 61.6218 109.597 62.0191 109.597 62.4359C109.597 63.009 110.19 63.1718 111.212 63.3476C112.88 63.6537 113.342 63.7319 113.856 64.1291C114.111 64.3333 114.316 64.592 114.457 64.8863C114.598 65.1805 114.671 65.5027 114.671 65.8289C114.671 67.0793 113.55 68.5642 111.069 68.5642C109.652 68.604 108.275 68.0927 107.227 67.1379L108.633 65.9592ZM117.894 57.1346V59.0884H115.993V57.1346H117.894ZM117.894 60.3193V68.3232H115.993V60.3193H117.894ZM127.025 60.3193V66.8839C127.025 68.4665 127.025 69.1112 126.51 69.782C125.996 70.4528 125.071 70.9999 123.182 70.9999C120.336 70.9999 119.77 69.769 119.503 68.486H121.613C121.756 68.9484 122.095 69.476 123.248 69.476C123.545 69.5087 123.846 69.4662 124.122 69.3524C124.399 69.2386 124.642 69.0572 124.83 68.8247C125.117 68.4209 125.117 67.9585 125.117 66.9816C124.45 67.5564 123.594 67.8649 122.714 67.8478C120.825 67.8478 119.242 66.5453 119.242 64.0249C119.242 61.0487 121.372 60.0718 122.844 60.0718C123.282 60.0482 123.719 60.1341 124.116 60.3217C124.513 60.5093 124.857 60.7927 125.117 61.1464V60.3128L127.025 60.3193ZM123.182 61.7911C122.206 61.7911 121.229 62.4424 121.229 63.9859C121.198 64.2575 121.226 64.5326 121.31 64.7925C121.395 65.0523 121.535 65.2908 121.721 65.4917C121.906 65.6926 122.133 65.8512 122.385 65.9565C122.637 66.0619 122.909 66.1117 123.182 66.1024C123.45 66.12 123.719 66.0789 123.969 65.9819C124.22 65.8849 124.446 65.7343 124.632 65.5408C124.818 65.3473 124.959 65.1154 125.047 64.8614C125.134 64.6075 125.164 64.3375 125.136 64.0705C125.188 62.768 124.478 61.7911 123.182 61.7911ZM130.704 57.0239V61.1399C131.035 60.8007 131.432 60.5323 131.869 60.3509C132.307 60.1695 132.777 60.079 133.251 60.0848C133.657 60.0692 134.061 60.1382 134.439 60.2873C134.817 60.4364 135.16 60.6624 135.446 60.951C136.097 61.6544 136.097 62.4684 136.097 63.3867V68.3363H134.208V63.9338C134.23 63.5492 134.186 63.1638 134.078 62.7941C133.975 62.5147 133.782 62.2771 133.53 62.1182C133.278 61.9592 132.981 61.8878 132.684 61.9149C132.245 61.9139 131.817 62.0556 131.464 62.3186C131.112 62.5817 130.855 62.9519 130.731 63.3737C130.651 63.803 130.629 64.2411 130.665 64.6762V68.3558H128.744V57.0239H130.704ZM140.017 61.6999V65.3209C140.017 66.3108 140.017 66.7472 140.929 66.7472C141.2 66.7554 141.47 66.7225 141.73 66.6495V68.2646C141.27 68.3493 140.804 68.3929 140.337 68.3949C139.939 68.3949 138.591 68.3949 138.226 67.418C138.097 66.8834 138.053 66.3317 138.096 65.7833V61.6999H136.93V60.3258H138.096V57.4928H140.05V60.3258H141.763V61.6999H140.017Z" fill="#232323"/>
<path d="M152.073 68.3234H150.426V64.4745H146.57V62.8398H150.426V58.9844H152.073V62.8398H155.903V64.4745H152.073V68.3234Z" fill="#6FC527"/>
<path d="M167.868 66.1155H163.628L162.977 68.3232H160.736L164.546 57.0239H166.949L170.805 68.3232H168.551L167.868 66.1155ZM167.308 64.2724L165.758 59.0624L164.188 64.2724H167.308ZM176.914 63.1718C176.803 62.7775 176.566 62.4304 176.239 62.1844C175.912 61.9384 175.512 61.807 175.103 61.8107C173.996 61.8107 173.149 62.6899 173.149 64.292C173.149 65.7312 173.905 66.7863 175.168 66.7863C175.622 66.7807 176.062 66.6231 176.416 66.3386C176.77 66.0541 177.019 65.6591 177.122 65.2167L178.77 66.0829C178.502 66.8209 178.012 67.4574 177.367 67.9043C176.721 68.3512 175.953 68.5864 175.168 68.5772C172.941 68.5772 171.196 66.8644 171.196 64.3375C171.17 63.7915 171.255 63.246 171.446 62.7339C171.637 62.2217 171.93 61.7535 172.306 61.3573C172.683 60.9612 173.136 60.6454 173.638 60.429C174.14 60.2125 174.68 60.0999 175.227 60.0979C175.964 60.088 176.688 60.2993 177.304 60.7044C177.921 61.1095 178.401 61.6898 178.685 62.3707L176.914 63.1718ZM182.045 61.6999V65.3209C182.045 66.3108 182.045 66.7472 182.957 66.7472C183.228 66.7554 183.498 66.7225 183.758 66.6495V68.2646C183.298 68.3493 182.832 68.3929 182.365 68.3949C181.967 68.3949 180.619 68.3949 180.254 67.418C180.125 66.8834 180.081 66.3317 180.124 65.7833V61.6999H178.972V60.3258H180.137V57.4928H182.091V60.3258H183.804V61.6999H182.045ZM186.787 57.1346V59.0884H184.833V57.1346H186.787ZM186.787 60.3193V68.3232H184.833V60.3193H186.787ZM192.29 68.5642C191.729 68.5804 191.172 68.4801 190.652 68.2696C190.133 68.0592 189.662 67.7431 189.271 67.3416C188.88 66.94 188.576 66.4616 188.38 65.9367C188.183 65.4117 188.097 64.8517 188.128 64.292C188.106 63.7381 188.196 63.1855 188.393 62.6673C188.59 62.1491 188.889 61.676 189.273 61.2763C189.657 60.8766 190.118 60.5587 190.628 60.3415C191.138 60.1243 191.687 60.0123 192.241 60.0123C192.795 60.0123 193.344 60.1243 193.854 60.3415C194.364 60.5587 194.825 60.8766 195.209 61.2763C195.593 61.676 195.892 62.1491 196.089 62.6673C196.286 63.1855 196.376 63.7381 196.354 64.292C196.354 66.7863 194.706 68.5642 192.29 68.5642ZM192.192 61.8107C190.994 61.8107 190.128 62.768 190.128 64.2464C190.128 65.894 191.137 66.8058 192.29 66.8058C193.683 66.8058 194.387 65.5879 194.341 64.2594C194.296 62.9308 193.54 61.8107 192.192 61.8107ZM197.682 60.3193H199.636V61.2636C199.805 61.0036 200.027 60.7818 200.287 60.6124C200.833 60.2481 201.474 60.0532 202.13 60.0523C202.53 60.041 202.928 60.1221 203.291 60.2893C203.655 60.4564 203.975 60.7052 204.227 61.0161C204.722 61.6674 204.722 62.5531 204.722 63.6212V68.3297H202.814V64.2464C202.836 63.8393 202.814 63.431 202.749 63.0285C202.695 62.7239 202.534 62.4485 202.295 62.2516C202.057 62.0547 201.756 61.9492 201.446 61.9539C201.143 61.9568 200.846 62.0418 200.586 62.2001C200.327 62.3583 200.116 62.5839 199.975 62.8527C199.725 63.4881 199.621 64.1711 199.668 64.852V68.3232H197.715L197.682 60.3193Z" fill="#232323"/>
<path d="M220.943 27.4702L237.355 43.8819H220.943V27.4702Z" fill="#6FC527"/>
</svg>
